<svg xmlns="http://www.w3.org/2000/svg" width="215" height="38" viewBox="0 0 215 38">
    <defs>
        <linearGradient id="a" x1="50.05%" x2="50.05%" y1="0%" y2="99.989%">
            <stop offset="0%" stop-color="#B70D13"/>
            <stop offset="100%" stop-color="#E10613"/>
        </linearGradient>
        <linearGradient id="b" x1=".011%" y1="50.092%" y2="50.092%">
            <stop offset="0%" stop-color="#E10613"/>
            <stop offset="100%" stop-color="#B70D13"/>
        </linearGradient>
        <linearGradient id="c" x1="2785%" x2="2785%" y1="6056%" y2="3848%">
            <stop offset="0%" stop-color="#B70D13"/>
            <stop offset="100%" stop-color="#E10613"/>
        </linearGradient>
        <linearGradient id="d" x1="0%" x2="2209%" y1="3310%" y2="3310%">
            <stop offset="0%" stop-color="#B70D13"/>
            <stop offset="100%" stop-color="#E10613"/>
        </linearGradient>
    </defs>
    <g fill="none" fill-rule="nonzero">
        <path fill="#E10613" d="M57.62 27.278v-.356c-.871.7-1.852 1.253-2.902 1.635a9.709 9.709 0 0 1-3.344.566 9.618 9.618 0 0 1-7.05-2.92 9.618 9.618 0 0 1-2.92-7.05 9.618 9.618 0 0 1 2.92-7.05c3.893-3.89 10.201-3.89 14.094 0a9.618 9.618 0 0 1 2.92 7.05v8.125a1.856 1.856 0 0 1-1.85 1.85c-.502.004-.981-.201-1.325-.565a1.782 1.782 0 0 1-.543-1.285zm-6.224-14.36a6.065 6.065 0 0 0-2.455.498 6.224 6.224 0 0 0-3.299 3.327 6.224 6.224 0 0 0 0 4.843c.31.74.758 1.413 1.319 1.986a6.292 6.292 0 0 0 1.974 1.341 6.258 6.258 0 0 0 4.894 0 6.326 6.326 0 0 0 3.316-3.32 6.184 6.184 0 0 0 0-4.821 6.337 6.337 0 0 0-3.321-3.338 6.02 6.02 0 0 0-2.45-.515h.022zM80.908 29.128a1.754 1.754 0 0 1-1.318-.531 1.861 1.861 0 0 1-.532-1.302 8.272 8.272 0 0 1-2.597 1.398 9.749 9.749 0 0 1-2.97.435 8.877 8.877 0 0 1-3.627-.746 9.46 9.46 0 0 1-4.957-4.957 8.877 8.877 0 0 1-.74-3.593v-8.78a1.782 1.782 0 0 1 .565-1.308 1.805 1.805 0 0 1 1.324-.565 1.85 1.85 0 0 1 1.839 1.872v8.793a5.437 5.437 0 0 0 .435 2.172 5.567 5.567 0 0 0 2.96 2.97c1.382.582 2.94.582 4.322 0a5.658 5.658 0 0 0 2.982-2.97 5.375 5.375 0 0 0 .435-2.16V11.05a1.782 1.782 0 0 1 .566-1.307 1.805 1.805 0 0 1 1.324-.565 1.85 1.85 0 0 1 1.85 1.85v16.25c.002.495-.203.968-.565 1.306-.341.349-.809.545-1.296.543zM87.284 9.201h.838V2.508a1.782 1.782 0 0 1 .566-1.307A1.805 1.805 0 0 1 90.01.635c.496-.001.97.204 1.307.566.362.338.567.812.566 1.307v6.693h2.224c.494-.003.966.203 1.301.566a1.8 1.8 0 0 1 .532 1.307c.01.495-.181.974-.532 1.324a1.754 1.754 0 0 1-1.301.566h-2.224v8.905c0 2.362 1.186 3.542 3.559 3.542.494-.003.967.202 1.301.566a1.8 1.8 0 0 1 .532 1.307c.01.495-.181.974-.532 1.324a1.754 1.754 0 0 1-1.301.566c-4.854 0-7.28-2.42-7.276-7.26V12.92h-.837a1.76 1.76 0 0 1-1.29-.566 1.8 1.8 0 0 1-.566-1.324 1.782 1.782 0 0 1 .566-1.307 1.76 1.76 0 0 1 1.244-.52zM118.663 19.165a9.528 9.528 0 0 1-2.92 7.05 9.964 9.964 0 0 1-17.013-7.05 9.618 9.618 0 0 1 2.92-7.05c3.892-3.89 10.2-3.89 14.094 0a9.777 9.777 0 0 1 2.178 3.22c.49 1.217.742 2.517.741 3.83zm-9.964-6.224a6.065 6.065 0 0 0-2.455.498 6.224 6.224 0 0 0-3.299 3.327 6.224 6.224 0 0 0 0 4.843c.312.74.762 1.414 1.324 1.986a6.292 6.292 0 0 0 1.975 1.34 6.258 6.258 0 0 0 4.894 0 6.326 6.326 0 0 0 1.986-1.351 6.422 6.422 0 0 0 1.33-1.992 6.184 6.184 0 0 0 0-4.82 6.337 6.337 0 0 0-3.321-3.338 6.02 6.02 0 0 0-2.44-.515l.006.022z"/>
        <path fill="#000" d="M131.472 29.128a9.55 9.55 0 0 1-6.223-2.19v8.884c.008.501-.198.983-.566 1.324-.353.346-.83.535-1.324.526a1.794 1.794 0 0 1-1.85-1.85V19.165a9.618 9.618 0 0 1 2.92-7.05c3.892-3.89 10.2-3.89 14.093 0a9.692 9.692 0 0 1 2.19 3.214 9.986 9.986 0 0 1 .735 3.836 9.528 9.528 0 0 1-2.92 7.05 10.077 10.077 0 0 1-3.247 2.195 9.89 9.89 0 0 1-3.808.718zm-6.223-9.963a6.065 6.065 0 0 0 .47 2.427A6.224 6.224 0 0 0 129 24.913a6.258 6.258 0 0 0 4.894 0 6.337 6.337 0 0 0 1.986-1.352 6.433 6.433 0 0 0 1.352-1.969 6.19 6.19 0 0 0 0-4.82 6.439 6.439 0 0 0-1.335-1.986 6.343 6.343 0 0 0-1.986-1.353 6.224 6.224 0 0 0-8.193 3.327 6.065 6.065 0 0 0-.492 2.405h.023zM160.498 27.278v-.356c-.872.7-1.852 1.253-2.903 1.635a9.709 9.709 0 0 1-3.344.566 9.618 9.618 0 0 1-7.05-2.92 9.618 9.618 0 0 1-2.925-7.038 9.618 9.618 0 0 1 2.92-7.05c3.892-3.89 10.2-3.89 14.094 0a9.618 9.618 0 0 1 2.92 7.05v8.113a1.861 1.861 0 0 1-3.718 0h.006zm-6.224-14.36a6.065 6.065 0 0 0-2.456.498 6.224 6.224 0 0 0-3.298 3.327 6.224 6.224 0 0 0 0 4.843c.312.74.76 1.414 1.324 1.986a6.292 6.292 0 0 0 1.974 1.341 6.258 6.258 0 0 0 4.894 0 6.326 6.326 0 0 0 1.986-1.352c.556-.57 1.001-1.237 1.313-1.969a6.19 6.19 0 0 0 0-4.82 6.337 6.337 0 0 0-3.321-3.338 6.026 6.026 0 0 0-2.439-.515h.023zM170.716 11.051v.357c.87-.7 1.851-1.253 2.902-1.635a9.715 9.715 0 0 1 3.344-.566c.567.002 1.134.038 1.697.107a7.355 7.355 0 0 1 1.658.385c.467.162.895.42 1.256.758.335.326.515.778.498 1.245.002.251-.05.5-.153.73a2.06 2.06 0 0 1-.401.594c-.16.17-.353.307-.566.402-.231.096-.48.144-.73.141a1.98 1.98 0 0 1-.78-.198 6.563 6.563 0 0 0-2.44-.447 6.11 6.11 0 0 0-2.438.492 6.224 6.224 0 0 0-3.321 3.322c-.33.77-.497 1.6-.492 2.438v8.102a1.85 1.85 0 0 1-1.85 1.85 1.8 1.8 0 0 1-1.324-.565 1.782 1.782 0 0 1-.566-1.307V11.05a1.782 1.782 0 0 1 .566-1.307 1.805 1.805 0 0 1 1.323-.565 1.85 1.85 0 0 1 1.85 1.85l-.033.022zM185.896 9.201h.815V2.508c.005-.487.209-.952.565-1.284A1.805 1.805 0 0 1 188.6.658c.496-.001.97.204 1.307.566.362.338.567.811.566 1.307V9.2h2.224c.494-.003.966.203 1.3.566a1.8 1.8 0 0 1 .533 1.307c.01.495-.182.974-.532 1.324a1.754 1.754 0 0 1-1.301.566h-2.224v8.905c0 2.362 1.186 3.542 3.559 3.542.494-.003.966.202 1.301.566a1.8 1.8 0 0 1 .532 1.307c.01.495-.181.974-.532 1.324a1.754 1.754 0 0 1-1.301.566c-4.881-.03-7.321-2.465-7.321-7.305v-8.95h-.838a1.76 1.76 0 0 1-1.29-.566 1.8 1.8 0 0 1-.566-1.324 1.782 1.782 0 0 1 .566-1.307 1.76 1.76 0 0 1 1.313-.52zM202.015 19.646a6.88 6.88 0 0 1-2.348-1.319 4.436 4.436 0 0 1-1.352-3.219 4.35 4.35 0 0 1 .718-2.444 6.512 6.512 0 0 1 1.879-1.862 9.415 9.415 0 0 1 2.608-1.182 10.456 10.456 0 0 1 2.908-.419 9.884 9.884 0 0 1 7.633 3.576c.255.321.387.722.373 1.132a1.794 1.794 0 0 1-1.85 1.85 1.505 1.505 0 0 1-.967-.323 9.398 9.398 0 0 1-.776-.696 6.009 6.009 0 0 0-4.413-1.816 5.46 5.46 0 0 0-4.09 1.567c-.197.211-.3.493-.283.781a.668.668 0 0 0 .498.662l8.328 2.739a6.733 6.733 0 0 1 2.348 1.318 4.436 4.436 0 0 1 1.352 3.22 4.334 4.334 0 0 1-.718 2.455 6.676 6.676 0 0 1-1.879 1.861 9.11 9.11 0 0 1-2.642 1.194c-.944.27-1.92.407-2.902.407a9.85 9.85 0 0 1-7.633-3.541 1.867 1.867 0 0 1-.39-1.132 1.794 1.794 0 0 1 1.872-1.873c.363-.01.718.113.996.345.272.23.52.453.747.668a6.026 6.026 0 0 0 4.43 1.816 5.432 5.432 0 0 0 4.09-1.601c.178-.201.273-.462.267-.73a.702.702 0 0 0-.481-.696l-8.323-2.738z"/>
        <path fill="url(#a)" d="M7.412 9.822l4.583 4.447a5.731 5.731 0 0 0 7.7.108s4.526-4.266 4.917-4.668c.55-.563.842-1.33.803-2.116 0-1.533-4.413-4.277-9.788-4.277S6.224 6.263 6.224 7.83c0 1.018 1.188 1.991 1.188 1.991z" transform="translate(0 .092)"/>
        <path fill="url(#b)" d="M25.008 10.874l-4.447 4.583a5.731 5.731 0 0 0-.108 7.7s4.266 4.527 4.668 4.917a2.829 2.829 0 0 0 2.116.781c1.533 0 4.277-4.413 4.277-9.788s-2.953-9.375-4.526-9.375c-1.007.017-1.98 1.182-1.98 1.182z" transform="translate(0 .092)"/>
        <path fill="url(#c)" d="M24.176 28.323l-4.583-4.447a5.731 5.731 0 0 0-7.711-.113s-4.527 4.266-4.917 4.668a2.829 2.829 0 0 0-.792 2.122c0 1.533 4.413 4.277 9.788 4.277s9.375-2.953 9.375-4.526c.006-1.007-1.16-1.98-1.16-1.98z" transform="translate(0 .092)"/>
        <path fill="url(#d)" d="M6.507 27.724l4.447-4.583a5.731 5.731 0 0 0 .107-7.7s-4.266-4.527-4.668-4.917a2.829 2.829 0 0 0-2.116-.804C2.744 9.71 0 14.145 0 19.503s2.953 9.352 4.526 9.352c1.007 0 1.98-1.131 1.98-1.131z" transform="translate(0 .092)"/>
        <path fill="#B70D13" d="M25.46 32.738a10.954 10.954 0 0 0 3.961-3.79c1.132-1.772 1.132-1.902 1.505-1.907.373-.006.458.13.458 2.642 0 2.687-.147 5.222-2.54 5.222h-4.968s-1.063.057-1.075-.605c-.011-.662 1.63-.996 2.66-1.562z"/>
    </g>
</svg>
